# xmcd
#
# Track frame offsets:
#	150
#	16805
#	34792
#	51981
#	70621
#	88091
#	105038
#	120434
#	141112
#	159755
#
# Disc length: 2338 seconds
#
# Revision: 1
# Processed by: cddbd v1.5PL3 Copyright (c) Steve Scherf et al.
# Submitted via: audiograbber 1.82.02
#
DISCID=6d09200a
DTITLE=Luiz - Szeress ujra
DYEAR=2003
DGENRE=Bluegrass
TTITLE0=Szeress újra
TTITLE1=Angyali Lány
TTITLE2=Szabad az út
TTITLE3=Rossz voltam veled
TTITLE4=Volt egy lány
TTITLE5=Gyere és mondd
TTITLE6=Ennyi volt
TTITLE7=Szerelem sziget
TTITLE8=Hideg tél van
TTITLE9=Rossz voltam veled (REMIX)
EXTD=
EXTT0=
EXTT1=
EXTT2=
EXTT3=
EXTT4=
EXTT5=
EXTT6=
EXTT7=
EXTT8=
EXTT9=
PLAYORDER=
